<svg version="1.2" xmlns="http://www.w3.org/2000/svg" viewBox="0 0 222 47" width="222" height="47"><style>.a{fill:#3e1293}.b{fill:#c40a9e}</style><path fill-rule="evenodd" class="a" d="m39.3 43.8v-12.3l4.7-0.4c0.8-0.1 1.5-0.8 1.5-1.6l0.3-25.1c0-1.1-0.8-2-1.9-2l-38.7-1.5c-0.6 0-1.2 0.2-1.6 0.6-0.4 0.5-0.7 1-0.7 1.6 0 0 0 9.1 0.1 17 0 6 0.2 11.3 0.2 11.3 0 0.5 0.2 1 0.6 1.4 0.4 0.3 0.9 0.5 1.4 0.5l19.6-1.1 6.6 6.8 0.8 0.9 1.8-1.6-0.8-0.9-6.7-7.6c-0.3-0.4-0.7-0.5-1.1-0.5l-18.2 0.1c0-2.1 0.1-5.6 0.1-9.3 0.1-5.5 0.1-11.5 0.1-14.7l34.5 0.9 0.3 21.7-4.6 0.6c-0.8 0.1-1.4 0.7-1.4 1.5l0.7 13.7v1.2h2.4v-1.2z"/><path class="a" d="m61.7 37.9q0.5 0.7 0.5 2v4.2h-1.8v-4.1q0-0.7-0.2-1-0.3-0.4-0.7-0.4-0.5 0-0.9 0.3-0.4 0.2-0.9 0.5v4.7h-1.8v-9.6l1.8-0.2v3.6q0.6-0.4 1.2-0.6 0.6-0.2 1.1-0.1 1.2 0 1.7 0.7z"/><path fill-rule="evenodd" class="a" d="m69.7 42.6q-0.4 0.8-1.2 1.2-0.8 0.4-1.9 0.4-1.1 0-1.9-0.4-0.8-0.4-1.2-1.2-0.5-0.8-0.5-1.9 0-1 0.5-1.8 0.4-0.8 1.2-1.3 0.8-0.4 1.9-0.4 1.1 0 1.9 0.4 0.8 0.5 1.2 1.3 0.5 0.7 0.5 1.8 0 1.1-0.5 1.9zm-1.9-0.5q0.5-0.5 0.5-1.4 0-0.9-0.5-1.4-0.4-0.6-1.2-0.6-0.7 0-1.2 0.6-0.5 0.6-0.5 1.4 0 0.9 0.5 1.5 0.4 0.5 1.2 0.5 0.7 0 1.2-0.6z"/><path class="a" d="m72.8 44.1h-1.8v-6.7h1.2l0.3 0.7q0.6-0.4 1.3-0.7 0.7-0.3 1.3-0.2 1.2 0 1.7 0.7 0.6 0.7 0.6 2v4.2h-1.8v-4.1q0-0.7-0.3-1-0.2-0.4-0.7-0.4-0.5 0-0.9 0.3-0.4 0.2-0.9 0.5z"/><path fill-rule="evenodd" class="a" d="m84.5 41.3h0.1q0 0-0.1 0zm-4.5 0q0.2 0.7 0.6 1 0.5 0.4 1.5 0.4 0.5 0 0.9-0.2 0.5-0.1 1-0.4l0.5 1.3q-0.5 0.4-1.1 0.6-0.6 0.2-1.4 0.2-1.9 0-2.9-0.9-1-0.9-1-2.6 0-1 0.4-1.8 0.4-0.8 1.2-1.3 0.8-0.4 1.8-0.4 1 0 1.7 0.5 0.7 0.4 1 1.2 0.3 0.8 0.3 1.8v0.6zm0.1-1.2q0-0.1 0-0.1zm2.8 0q-0.2-0.6-0.5-1-0.4-0.3-0.9-0.3-0.6 0-0.9 0.4-0.4 0.3-0.5 0.9z"/><path class="a" d="m85 43.5l0.6-1.2q1 0.5 1.7 0.5 0.4 0 0.8-0.2 0.3-0.1 0.3-0.4 0-0.5-1.2-0.9-0.9-0.3-1.6-0.8-0.6-0.5-0.6-1.3 0-0.9 0.7-1.5 0.7-0.5 1.9-0.5 0.5 0 1.2 0.2 0.6 0.2 1.1 0.5l-0.5 1.2q-0.6-0.2-1-0.3-0.4-0.1-0.8-0.2-0.4 0.1-0.6 0.2-0.2 0.2-0.2 0.4 0 0.2 0.3 0.3 0.2 0.2 0.7 0.4 1 0.3 1.7 0.9 0.6 0.5 0.6 1.3 0 1-0.7 1.6-0.7 0.5-2.1 0.5-0.5 0-1.2-0.2-0.7-0.1-1.1-0.5z"/><path class="a" d="m94.2 37.4l0.6 1.4h-1.8v2.8q0 0.5 0.2 0.9 0.3 0.3 0.8 0.3 0.3 0 0.7-0.2l0.5 1.3q-0.2 0.2-0.6 0.3-0.4 0.1-0.7 0.1-1.3 0-2-0.6-0.7-0.6-0.7-1.8v-3.1h-0.9v-1.4h0.9v-1.6l1.8-0.3v1.9h1.2z"/><path fill-rule="evenodd" class="a" d="m105 42.6q-0.4 0.8-1.2 1.2-0.8 0.4-1.9 0.4-1.1 0-1.9-0.4-0.8-0.4-1.2-1.2-0.5-0.8-0.5-1.9 0-1 0.5-1.8 0.4-0.8 1.2-1.3 0.8-0.4 1.9-0.4 1.1 0 1.9 0.4 0.8 0.5 1.2 1.3 0.5 0.7 0.5 1.8 0 1.1-0.5 1.9zm-1.9-0.5q0.5-0.5 0.5-1.4 0-0.9-0.5-1.4-0.4-0.6-1.2-0.6-0.7 0-1.2 0.6-0.5 0.6-0.5 1.4 0 0.9 0.5 1.5 0.4 0.5 1.2 0.5 0.7 0 1.2-0.6z"/><path fill-rule="evenodd" class="a" d="m111.9 38.1q0.9 1 0.9 2.6 0 1-0.4 1.8-0.4 0.8-1.2 1.3-0.8 0.4-1.8 0.4-0.6 0-1.2-0.3v3l-1.8 0.2v-9.7h0.9l0.3 0.4q0.9-0.6 1.8-0.6 1.6 0 2.5 1v-0.1zm-1.4 4q0.4-0.5 0.4-1.4 0-0.9-0.4-1.4-0.4-0.6-1.1-0.6-0.6 0-1.2 0.4v3.2q0.5 0.4 1.2 0.4 0.7 0 1.1-0.6z"/><path class="a" d="m114.5 36.4q-0.4 0-0.7-0.3-0.3-0.3-0.3-0.7 0-0.4 0.3-0.7 0.3-0.3 0.7-0.3 0.4 0 0.7 0.3 0.3 0.3 0.3 0.7 0 0.4-0.3 0.7-0.3 0.3-0.7 0.3zm-0.9 7.7v-6.7h1.8v6.7z"/><path class="a" d="m118.5 44.1h-1.8v-6.7h1.2l0.3 0.7q0.6-0.4 1.3-0.7 0.7-0.3 1.2-0.2 1.3 0 1.8 0.7 0.5 0.7 0.5 2v4.2h-1.8v-4.1q0-0.7-0.2-1-0.3-0.4-0.7-0.4-0.5 0-0.9 0.3-0.4 0.2-0.9 0.5z"/><path class="a" d="m125.1 36.4q-0.4 0-0.7-0.3-0.3-0.3-0.3-0.7 0-0.4 0.3-0.7 0.3-0.3 0.7-0.3 0.4 0 0.7 0.3 0.3 0.3 0.3 0.7 0 0.4-0.3 0.7-0.3 0.3-0.7 0.3zm-0.9 7.7v-6.7h1.8v6.7z"/><path fill-rule="evenodd" class="a" d="m133.6 42.6q-0.5 0.8-1.3 1.2-0.8 0.4-1.8 0.4-1.1 0-1.9-0.4-0.8-0.4-1.3-1.2-0.4-0.8-0.4-1.9 0-1 0.4-1.8 0.5-0.8 1.3-1.3 0.8-0.4 1.9-0.4 1 0 1.8 0.4 0.8 0.5 1.3 1.3 0.4 0.7 0.4 1.8 0 1.1-0.4 1.9zm-1.9-0.5q0.5-0.5 0.5-1.4 0-0.9-0.5-1.4-0.5-0.6-1.2-0.6-0.8 0-1.3 0.6-0.5 0.6-0.5 1.4 0 0.9 0.5 1.5 0.5 0.5 1.2 0.5 0.8 0 1.3-0.6z"/><path class="a" d="m136.7 44.1h-1.8v-6.7h1.1l0.3 0.7q0.7-0.4 1.4-0.7 0.6-0.3 1.2-0.2 1.3 0 1.8 0.7 0.5 0.7 0.5 2v4.2h-1.8v-4.1q0-0.7-0.2-1-0.3-0.4-0.8-0.4-0.4 0-0.8 0.3-0.5 0.2-0.9 0.5z"/><path class="a" d="m142 43.5l0.6-1.2q1 0.5 1.7 0.5 0.4 0 0.8-0.2 0.3-0.1 0.3-0.4 0-0.5-1.2-0.9-0.9-0.3-1.5-0.8-0.7-0.5-0.7-1.3 0-0.9 0.7-1.5 0.7-0.5 1.9-0.5 0.5 0 1.2 0.2 0.6 0.2 1.1 0.5l-0.5 1.2q-0.6-0.2-1-0.3-0.4-0.1-0.8-0.2-0.4 0.1-0.6 0.2-0.2 0.2-0.2 0.4 0 0.2 0.3 0.3 0.2 0.2 0.7 0.4 1 0.3 1.7 0.9 0.6 0.5 0.6 1.3 0 1-0.7 1.6-0.7 0.5-2.1 0.5-0.5 0-1.2-0.2-0.7-0.1-1.1-0.5z"/><path class="b" d="m153.1 37.4l0.6 1.4h-1.8v2.8q0 0.5 0.3 0.9 0.2 0.3 0.7 0.3 0.3 0 0.7-0.2l0.5 1.3q-0.2 0.2-0.6 0.3-0.4 0.1-0.7 0.1-1.3 0-2-0.6-0.7-0.6-0.7-1.8v-3.1h-0.9v-1.4h0.9v-1.6l1.8-0.3v1.9h1.2z"/><path class="b" d="m160.8 37.9q0.5 0.7 0.5 2v4.2h-1.8v-4.1q0-0.7-0.3-1-0.2-0.4-0.7-0.4-0.4 0-0.8 0.3-0.5 0.2-1 0.5v4.7h-1.7v-9.6l1.7-0.2v3.6q0.6-0.4 1.2-0.6 0.6-0.2 1.1-0.1 1.3 0 1.8 0.7z"/><path fill-rule="evenodd" class="b" d="m163.2 39.3l-0.5-1.5q0.3-0.2 1.1-0.4 0.8-0.2 1.3-0.2 0.8 0 1.4 0.3 0.7 0.3 1.1 0.9 0.4 0.6 0.4 1.3v4.4h-1.2l-0.3-0.8q-0.8 0.9-1.7 0.9-1.2 0-1.9-0.6-0.6-0.6-0.6-1.5c0-0.7 0.3-1.3 0.7-1.6q0.7-0.6 1.9-0.6h1.3q0-0.5-0.3-0.8-0.3-0.3-0.8-0.3-0.5 0-1 0.2-0.6 0.1-0.9 0.3zm0.7 2.8q0 0.3 0.2 0.5 0.2 0.2 0.6 0.2 0.8 0 1.5-0.6v-1.1h-1.4q-0.4 0-0.7 0.3-0.3 0.3-0.2 0.7z"/><path class="b" d="m172.4 37.4l0.6 1.4h-1.8v2.8q0 0.5 0.3 0.9 0.2 0.3 0.7 0.3 0.4 0 0.7-0.2l0.6 1.3q-0.2 0.2-0.7 0.3-0.4 0.1-0.7 0.1-1.2 0-2-0.6-0.7-0.6-0.7-1.8v-3.1h-0.9v-1.4h0.9v-1.6l1.8-0.3v1.9h1.2z"/><path class="b" d="m186.8 37.8q0.5 0.6 0.5 1.8v4.5h-1.8v-4.2q0-0.6-0.2-0.9-0.2-0.4-0.6-0.4-0.4 0-0.8 0.2-0.3 0.2-0.8 0.6v4.7h-1.8v-4.2q0-0.6-0.2-0.9-0.2-0.4-0.7-0.4-0.4 0-0.7 0.2-0.4 0.2-0.9 0.6v4.7h-1.8v-6.7h1.2l0.3 0.7q0.6-0.4 1.2-0.7 0.7-0.3 1.2-0.2 1.4-0.1 1.8 0.9 0.7-0.5 1.3-0.7 0.7-0.2 1.2-0.2 1.1-0.1 1.6 0.6z"/><path fill-rule="evenodd" class="b" d="m189.2 39.3l-0.5-1.5q0.3-0.2 1.1-0.4 0.8-0.2 1.3-0.2 0.8 0 1.4 0.3 0.7 0.3 1.1 0.9 0.4 0.6 0.4 1.3v4.4h-1.2l-0.3-0.8q-0.8 0.9-1.7 0.9-1.2 0-1.9-0.6-0.6-0.6-0.6-1.5c0-0.7 0.3-1.3 0.7-1.6q0.7-0.6 1.9-0.6h1.3q0-0.5-0.3-0.8-0.3-0.3-0.8-0.3-0.5 0-1 0.2-0.6 0.1-0.9 0.3zm0.7 2.8q-0.1 0.3 0.2 0.5 0.2 0.2 0.6 0.2 0.8 0 1.5-0.6v-1.1h-1.4q-0.4 0-0.7 0.3-0.3 0.3-0.2 0.7z"/><path class="b" d="m198.4 37.4l0.6 1.4h-1.8v2.8q0 0.5 0.3 0.9 0.2 0.3 0.7 0.3 0.4 0 0.7-0.2l0.6 1.3q-0.2 0.2-0.7 0.3-0.4 0.1-0.7 0.1-1.2 0-2-0.6-0.7-0.6-0.7-1.8v-3.1h-0.9v-1.4h0.9v-1.6l1.8-0.3v1.9h1.2z"/><path class="b" d="m203.4 37.4l0.6 1.4h-1.8v2.8q0 0.5 0.3 0.9 0.2 0.3 0.7 0.3 0.3 0 0.7-0.2l0.5 1.3q-0.2 0.2-0.6 0.3-0.4 0.1-0.7 0.1-1.3 0-2-0.6-0.7-0.6-0.7-1.8v-3.1h-0.9v-1.4h0.9v-1.6l1.8-0.3v1.9h1.2z"/><path fill-rule="evenodd" class="b" d="m211.1 41.3h0.1zm-4.5-0.1q0.1 0.7 0.6 1.1 0.4 0.4 1.4 0.4 0.5 0 1-0.2 0.4-0.1 0.9-0.4l0.5 1.3q-0.5 0.4-1.1 0.6-0.6 0.2-1.4 0.2-1.9 0-2.9-0.9-1-0.9-1-2.6 0-1 0.4-1.8 0.4-0.8 1.2-1.3 0.8-0.4 1.8-0.4 1 0 1.7 0.5 0.7 0.4 1 1.2 0.4 0.8 0.4 1.8v0.5zm0-1.2q0 0 0 0zm2.8 0q-0.2-0.6-0.5-1-0.4-0.3-0.9-0.3-0.6 0-1 0.3-0.3 0.4-0.4 1z"/><path class="b" d="m213.8 44.1h-1.8v-6.7h0.9l0.6 1.1q0.5-0.4 1.1-0.8 0.7-0.3 1.2-0.3l0.3 1.4q-0.4 0-1.1 0.3-0.6 0.4-1.2 0.9c0 0 0 4.1 0 4.1z"/><path class="b" d="m60.2 28.7h-4.8v-14.7h2.5l1.3 2.1q1.1-0.9 2.5-1.5 1.4-0.7 2.5-0.7l0.9 3.8q-1 0-2.4 0.6-1.4 0.6-2.5 1.6v8.8z"/><path fill-rule="evenodd" class="b" d="m79.5 22.6h-9.4q0.6 2.6 3.9 2.6 2.1 0 4.1-1.2l1.4 3.3q-1.1 0.8-2.6 1.3-1.5 0.4-3.3 0.4-4 0-6.4-2-2.3-2.1-2.3-5.7 0-2.3 1-4.1 0.9-1.8 2.7-2.8 1.7-0.9 4-0.9 2.3 0 3.8 1 1.5 1 2.3 2.8 0.8 1.7 0.8 3.9zm-4.5-2.7q-0.2-1.2-0.8-1.8-0.7-0.7-1.7-0.7-1 0-1.7 0.7-0.7 0.6-0.8 1.8z"/><path class="b" d="m84.9 28.7l-5.5-14 4.5-1.3 3.2 9.2 3-8.7h4.9l-5.8 14.8z"/><path class="b" d="m98 11.9q-1 0-1.8-0.8-0.8-0.8-0.8-1.8 0-1.1 0.8-1.9 0.8-0.8 1.8-0.8 1.1 0 1.9 0.8 0.8 0.8 0.8 1.9c0 0.7-0.3 1.3-0.8 1.8q-0.8 0.8-1.9 0.8zm-2.3 16.8v-14.8h4.7v14.8z"/><path fill-rule="evenodd" class="b" d="m106.6 22.6q0.7 2.6 3.9 2.6 2.1 0 4.2-1.2l1.3 3.3q-1 0.8-2.5 1.3-1.5 0.4-3.3 0.4-4 0-6.4-2-2.3-2.1-2.3-5.7 0-2.3 1-4.1 0.9-1.8 2.7-2.8 1.7-0.9 4-0.9 2.2 0 3.8 1 1.5 1 2.3 2.8 0.8 1.7 0.8 3.9v1.4zm4.9-2.7q-0.2-1.1-0.8-1.8-0.6-0.7-1.7-0.7-1 0-1.7 0.7-0.7 0.7-0.8 1.8z"/><path class="b" d="m129.5 28.7l-2.5-8.4-2.4 8.4h-4.2l-4.5-14 4.5-1.3 2.2 9 2.1-8.5h4.8l2.2 8.5 2-8.5h4.9l-4.9 14.8z"/><path class="a" d="m151.3 15l-1.4 3.3q-1-0.5-1.8-0.7-0.7-0.2-1.6-0.2-1.4 0-2.4 1.1-1 1.1-1 2.8 0 1.7 1 2.7 0.9 1.1 2.4 1.1 0.8 0 1.6-0.2 0.8-0.2 1.8-0.7l1.3 3.3q-1 0.8-2.4 1.2-1.4 0.3-2.6 0.3-2.4 0-4.2-0.9-1.8-0.9-2.8-2.7-1-1.7-1-4.1 0-2.4 1-4.2 1-1.7 2.8-2.7 1.8-1 4.2-1 1.1 0 2.6 0.4 1.4 0.4 2.4 1.2 0 0 0 0z"/><path fill-rule="evenodd" class="a" d="m165.7 22.6h-9.4q0.6 2.6 3.9 2.6 2.1 0 4.1-1.2l1.4 3.3q-1.1 0.8-2.6 1.3-1.5 0.4-3.3 0.4-4 0-6.4-2-2.3-2.1-2.3-5.7 0-2.3 1-4.1 1-1.8 2.7-2.8 1.7-0.9 4-0.9 2.3 0 3.8 1 1.5 1 2.3 2.8 0.8 1.7 0.8 3.9c0 0 0 1.4 0 1.4zm-4.5-2.7q-0.2-1.1-0.8-1.8-0.7-0.7-1.7-0.7-1 0-1.7 0.7-0.7 0.7-0.8 1.8z"/><path class="a" d="m171.6 28.7h-4.8v-14.8h2.9l0.8 1.6q1.4-0.9 2.9-1.5 1.6-0.5 3-0.5 2.7-0.1 4 1.5 1.2 1.6 1.2 4.3v9.4h-4.8v-9q0-1.1-0.4-1.7-0.5-0.7-1.4-0.7-1.3 0-3.5 1.3v10.1z"/><path class="a" d="m192.3 14.3l0.9 3.7h-4.1v4.9q0 1 0.5 1.7 0.5 0.6 1.4 0.6c0.6 0 1.3-0.2 1.9-0.5l1.4 3.3q-0.6 0.4-1.6 0.8-1.1 0.3-2 0.3-2.8 0-4.6-1.5-1.8-1.4-1.8-4.1v-5.5h-2.1v-3.8h2.1v-3.7l4.8-0.7v4.4h3.2z"/><path class="a" d="m199.8 28.7h-4.8v-14.7h2.4l1.4 2.1q1-0.9 2.4-1.5 1.4-0.7 2.6-0.7l0.9 3.8q-1.1 0-2.4 0.6-1.4 0.6-2.5 1.6c0 0 0 8.8 0 8.8z"/><path fill-rule="evenodd" class="a" d="m219.1 22.6h-9.5q0.7 2.6 3.9 2.6 2.1 0 4.2-1.2l1.3 3.3q-1 0.8-2.5 1.3-1.5 0.4-3.3 0.4-4.1 0-6.4-2-2.3-2.1-2.3-5.7 0-2.3 0.9-4.1 1-1.8 2.8-2.8 1.7-0.9 4-0.9 2.2 0 3.8 1 1.5 1 2.3 2.8 0.8 1.7 0.8 3.9c0 0 0 1.4 0 1.4zm-4.5-2.7q-0.2-1.1-0.9-1.8-0.6-0.7-1.6-0.7-1.1 0-1.7 0.7-0.7 0.7-0.8 1.8z"/><path class="a" d="m19 25.3q2 0 3.8 0.4c1.1-2.9 1.5-6.1 1.2-9.5l-8.6 1 0.4 3.7 5.4-0.6-2.2 5q0 0 0 0z"/><path class="a" d="m20.9 9.8q-1 1.7-2.2 3.1c2 2.4 4.5 4.4 7.6 5.7l3.4-7.9-3.4-1.5-2.1 5z"/><path class="b" d="m33.4 19.2q-1-1.7-1.5-3.5c-3.1 0.5-6.1 1.8-8.8 3.7l5.1 7 3-2.2-3.2-4.4c0 0 5.4-0.6 5.4-0.6z"/></svg>