<svg version="1.2" xmlns="http://www.w3.org/2000/svg" viewBox="0 0 125 47" width="125" height="47"><defs><clipPath clipPathUnits="userSpaceOnUse" id="cp1"><path d="m39 9h7.63v7h-7.63z"/></clipPath><clipPath clipPathUnits="userSpaceOnUse" id="cp2"><path d="m8.52 10.34h21.39v34.16h-21.39z"/></clipPath><clipPath clipPathUnits="userSpaceOnUse" id="cp3"><path d="m1.83 1.51h29.17v21.49h-29.17z"/></clipPath><clipPath clipPathUnits="userSpaceOnUse" id="cp4"><path d="m38 33h44v6h-44z"/></clipPath><clipPath clipPathUnits="userSpaceOnUse" id="cp5"><path d="m38.8 30.59l44.71 2.93-0.44 6.7-44.7-2.92z"/></clipPath><clipPath clipPathUnits="userSpaceOnUse" id="cp6"><path d="m38.8 30.59l44.71 2.93-0.44 6.7-44.7-2.92z"/></clipPath><clipPath clipPathUnits="userSpaceOnUse" id="cp7"><path d="m40 33h9v2h-9z"/></clipPath><clipPath clipPathUnits="userSpaceOnUse" id="cp8"><path d="m38.8 30.59l44.71 2.93-0.44 6.7-44.7-2.92z"/></clipPath><clipPath clipPathUnits="userSpaceOnUse" id="cp9"><path d="m38.8 30.59l44.71 2.93-0.44 6.7-44.7-2.92z"/></clipPath><clipPath clipPathUnits="userSpaceOnUse" id="cp10"><path d="m78 35h5v5h-5z"/></clipPath><clipPath clipPathUnits="userSpaceOnUse" id="cp11"><path d="m38.8 30.59l44.71 2.93-0.44 6.7-44.7-2.92z"/></clipPath><clipPath clipPathUnits="userSpaceOnUse" id="cp12"><path d="m38.8 30.59l44.71 2.93-0.44 6.7-44.7-2.92z"/></clipPath></defs><style>.a{fill:#684ac9}</style><g clip-path="url(#cp1)"><path class="a" d="m43.3 9.1l1 2.5h2.3l-1.7 1.6 0.4 2.3-2-1.1-2.1 1.1 0.4-2.3-1.7-1.6h2.3z"/></g><path class="a" d="m35.7 2.5l0.7 1.6h1.6l-1.1 1.1 0.2 1.6-1.4-0.7-1.4 0.7 0.3-1.6-1.2-1.1h1.6z"/><path class="a" d="m31 14.9l0.4 1.1h1l-0.7 0.7 0.2 1-0.9-0.5-1 0.5 0.2-1-0.7-0.7h1z"/><g clip-path="url(#cp2)"><path fill-rule="evenodd" class="a" d="m11.2 25.3c-1.4 8.8 4.1 17.1 12.6 19.2q-0.6-0.1-1.2-0.2c-9.2-1.5-15.4-10.2-13.8-19.4 1.5-9.2 10.2-15.4 19.4-13.8q0.7 0.1 1.3 0.2c-8.7-0.8-16.8 5.2-18.3 14z"/></g><path fill-rule="evenodd" class="a" d="m36.8 38.3c-13.9 7.9-27.6-11.4-15.6-21.9q-0.6 0.3-1.1 0.7c-6.1 4.3-7.5 12.8-3.2 18.8 4.3 6.1 12.7 7.5 18.8 3.2q0.5-0.4 1.1-0.8z"/><g clip-path="url(#cp3)"><path fill-rule="evenodd" class="a" d="m26.5 6.5l0.9 2q-1-0.1-2-0.1c-4.5 0-8.9 1.6-12.4 4.5q-1.7 1.4-3.1 3.2l-0.8-2.1-0.2-0.3h-0.8l-2.8-0.2-2-0.2v5.9c0.2 0.1 0.3 0.4 0.3 0.6q0 0.4-0.2 0.5-0.1 0.1-0.1 0.1v0.7l0.7 1.4h-2.2l0.7-1.4v-0.7c-0.2-0.1-0.3-0.3-0.3-0.5 0-0.3 0.1-0.5 0.3-0.6q0 0 0 0 0.1-0.1 0.1-0.1v-5.9l11.8-11.2 13.3-0.4 3-0.1z"/></g><path fill-rule="evenodd" class="a" d="m24.9 20.4h2.7q2 0 3.4 1.3 1.4 1.4 1.4 3.4 0 2-1.4 3.4-1.4 1.3-3.4 1.3h-2.7zm2.2 7.5h0.3q1.2 0 1.9-0.8 0.8-0.8 0.8-2 0-1.2-0.8-2-0.7-0.8-1.9-0.8h-0.3z"/><path class="a" d="m36.3 20.4v9.4h-2.1v-9.4z"/><path class="a" d="m42 20.2q0.8 0 1.5 0.2 0.8 0.2 1.1 0.5l0.4 0.2-0.9 1.7q-0.1-0.1-0.3-0.2-0.2-0.1-0.7-0.3-0.5-0.1-0.9-0.1-0.6 0-0.8 0.2-0.3 0.2-0.3 0.6 0 0.2 0.1 0.4 0.1 0.1 0.5 0.3 0.3 0.2 0.6 0.3 0.2 0.1 0.7 0.4 0.9 0.4 1.6 1 0.6 0.7 0.6 1.5 0 0.8-0.3 1.4-0.3 0.7-0.8 1-0.5 0.3-1.1 0.5-0.6 0.2-1.3 0.2-0.6 0-1.2-0.2-0.6-0.1-1-0.3-0.4-0.2-0.7-0.3-0.4-0.2-0.5-0.4l-0.2-0.1 1.1-1.8q0.2 0.1 0.4 0.3 0.2 0.2 0.8 0.5 0.7 0.3 1.1 0.3 1.4 0 1.4-0.9 0-0.2-0.1-0.4-0.1-0.2-0.4-0.3-0.2-0.2-0.4-0.3-0.2-0.1-0.6-0.3-0.4-0.2-0.6-0.3-0.9-0.4-1.4-1-0.4-0.7-0.4-1.4 0-1.3 0.9-2.1 0.9-0.8 2.1-0.8z"/><path class="a" d="m50.6 20.2q0.7 0 1.5 0.2 0.7 0.2 1.1 0.5l0.3 0.2-0.9 1.7q-0.1-0.1-0.3-0.2-0.1-0.1-0.6-0.3-0.6-0.1-1-0.1-0.5 0-0.8 0.2-0.3 0.2-0.3 0.6 0 0.2 0.1 0.4 0.2 0.1 0.5 0.3 0.3 0.2 0.6 0.3 0.2 0.1 0.8 0.4 0.9 0.4 1.5 1 0.7 0.7 0.7 1.5 0 0.8-0.3 1.4-0.3 0.7-0.8 1-0.5 0.3-1.2 0.5-0.6 0.2-1.3 0.2-0.6 0-1.2-0.2-0.6-0.1-1-0.3-0.4-0.2-0.7-0.3-0.3-0.2-0.5-0.4l-0.1-0.1 1.1-1.8q0.1 0.1 0.3 0.3 0.3 0.2 0.9 0.5 0.6 0.3 1.1 0.3 1.3 0 1.3-0.9 0-0.2-0.1-0.4-0.1-0.2-0.3-0.3-0.3-0.2-0.5-0.3-0.1-0.1-0.6-0.3-0.4-0.2-0.6-0.3-0.9-0.4-1.3-1-0.5-0.7-0.5-1.4 0-1.3 0.9-2.1 1-0.8 2.2-0.8z"/><path class="a" d="m61 20.4v1.9h-3.2v1.8h3.1v1.9h-3.1v1.9h3.2v1.9h-5.4v-9.4z"/><path fill-rule="evenodd" class="a" d="m63.1 20.4h3.4q1.3 0 2.2 0.7 0.9 0.7 0.9 2.1 0 1-0.6 1.7-0.5 0.7-1.4 1l3.3 3.9h-2.7l-2.9-3.7v3.7h-2.2zm2.2 4.2c0.2 0 0.6 0 0.7 0q0.2 0 0.5-0.1 0.2-0.1 0.4-0.2 0.2-0.1 0.3-0.4 0.1-0.2 0.1-0.5 0-0.4-0.1-0.6-0.1-0.3-0.3-0.4-0.2-0.1-0.4-0.2-0.3-0.1-0.5-0.1-0.2 0-0.5 0h-0.2z"/><path class="a" d="m71.6 22.3v-1.9h6.6v1.9h-2.2v7.5h-2.2v-7.5z"/><path fill-rule="evenodd" class="a" d="m84.6 20.4l3.8 9.4h-2.3l-0.7-1.9h-3.6l-0.7 1.9h-2.3l3.8-9.4zm0.1 5.6l-1.1-2.7-1 2.7z"/><path class="a" d="m89 22.3v-1.9h6.7v1.9h-2.3v7.5h-2.1v-7.5z"/><path class="a" d="m99.4 20.4v9.4h-2.1v-9.4z"/><path fill-rule="evenodd" class="a" d="m101.3 25.1q-0.1-2.1 1.3-3.5 1.4-1.4 3.4-1.4 2 0 3.3 1.4 1.4 1.4 1.4 3.5 0 2-1.3 3.5-1.4 1.4-3.4 1.4-2.1 0-3.4-1.4-1.4-1.4-1.3-3.5zm2.3 0q0 0.7 0.2 1.3 0.2 0.7 0.8 1.1 0.6 0.4 1.4 0.4 1.2 0 1.8-0.8 0.6-0.8 0.6-2 0-1.2-0.6-2-0.6-0.8-1.8-0.8-1.2 0-1.8 0.8-0.6 0.8-0.6 2z"/><path class="a" d="m114.7 24v5.8h-2.2v-9.4h2.2l3.7 5.8h0.1v-5.8h2.1v9.4h-2.1l-3.8-5.8z"/><path class="a" d="m102.9 30.9h0.2q0 0 0 0 0 0 0 0 0.1 0 0.1 0 0 0 0.1 0.1 0.1 0 0.1 0.1 0 0.1-0.1 0.4-0.2 0.3-0.8 1.5-1.3 2.8-2.3 5.1-1.8 4.1-1.8 4.2 0 0 0 0 0 0.1-0.1 0.1l-0.1-0.1-0.2 0.1h-0.1l-0.1 0.1h-0.1l-0.4 0.1q-0.4 0-0.4-0.2 0-0.1 0-0.3 0.2-0.6 1.8-4.3-1.3 0.3-2.7 0.4l-1.6 0.2q-0.3 0.7-0.8 2-1.2 2.7-1.3 2.8-0.1 0-0.1 0-0.1 0-0.1 0-0.1-0.1-0.1-0.1 0 0-0.1 0 0 0.1-0.2 0.1h-0.1-0.1q0 0 0 0 0 0-0.1 0-0.3 0.1-0.3-0.2-0.1-0.2 0-0.5 0.1-0.3 0.3-0.7 0.1-0.4 0.8-1.8 0.7-1.3 0.7-1.3-0.1 0-0.3 0-0.4 0-0.6 0-0.4 0-0.6-0.6-0.2-0.3-0.2-0.4 0-0.2 0.2-0.2h0.2q0.1 0 0.7 0 0.6-0.1 0.8-0.1l0.4-0.1q0.8-1.6 1.9-3.7-0.9 0.9-2.1 1.1-0.5 0-1-0.2-0.4-0.2-0.5-0.6 0-0.4 0.2-0.7 0.3-0.3 0.6-0.3 0.3-0.1 0.3 0 0 0-0.1 0.1 0 0 0 0.1 0 0.1 0.2 0.2 0.3 0 0.6 0 0.4-0.1 0.8-0.3 0.5-0.3 1-0.6 0.6-0.6 1-0.9 0.2-0.2 0.4-0.2 0.2 0 0.3 0 0.1 0.1 0.2 0.1 0 0.1 0.1 0.1 0.1 0.1 0.1 0.1 0.1 0.1 0.1 0.1 0 0.1-0.1 0.2 0 0.1-0.4 1-0.4 0.8-1.1 2.2-0.6 1.3-0.9 1.9 2-0.2 4.3-0.6 2.2-4.8 2.3-5 0.2-0.3 0.3-0.3 0.1-0.1 0.3-0.2z"/><path class="a" d="m106.1 35.6q0.1 0.5-0.3 1-0.3 0.4-0.8 0.4-0.2 0.1-0.2 0-0.1-0.1-0.1-0.2 0-0.1 0-0.2-0.3 0.1-0.6 0.3-0.3 0.2-0.7 0.7-0.4 0.4-0.4 0.6 0 0 0.2 0 0.1 0 0.5-0.2 0.3-0.2 0.5-0.2 0.1 0 0.2 0 0.1 0 0.2 0.2 0.1 0.2 0.2 0.3 0 0.1-0.2 0.3-0.2 0.1-0.4 0.3-0.3 0.1-0.3 0.1-1.5 1.1-1.4 1.4 0 0.6 1 0.5 0.7-0.1 1.3-0.6 0.5-0.4 0.8-0.8 0.4-0.4 0.5-0.5 0.1-0.1 0.2-0.1 0.2 0 0.2 0.4 0.1 0.4 0.1 0.6-0.1 0.1-0.3 0.4-1.4 1.5-2.8 1.7-0.8 0.1-1.3-0.1-0.8-0.3-0.9-1-0.2-1.1 1.2-1.8-0.3-0.1-0.5-0.3-0.1-0.1-0.1-0.6-0.1-0.4 0.3-1 0.3-0.5 0.9-0.9 1.2-0.9 2.2-1 0.2-0.1 0.5 0 0.3 0.1 0.3 0.3z"/><path fill-rule="evenodd" class="a" d="m111.3 29.2q0.3 0 0.6 0.2 0.3 0.1 0.4 0.6 0 0.4-0.3 1.3-0.3 1-0.9 2-0.5 1-1.2 2.2-1.1 1.8-2.1 3.3 0 0.1 0 0.3 0 0.3 0 0.5 0 0.3 0.3 0.4 0.3 0.2 0.6 0.2 0.3-0.1 0.7-0.4 0.3-0.3 0.6-0.6 0.6-0.9 0.8-0.9 0.2 0 0.3 0.5v0.2q0 0.3-0.1 0.4-0.5 0.9-1.2 1.3-0.8 0.5-1.5 0.6-0.7 0.1-1.1-0.3-0.4-0.4-0.5-1.1-0.2-1.5 0.3-3.5 0.6-2.1 1.3-3.6 1.8-3.4 3-3.6zm-0.2 1.3q0-0.1-0.1-0.1-0.2 0.1-1.1 1.7-1 1.6-1.4 2.6-0.3 0.9-0.6 2.3 0.8-1.1 2-3.5 1.3-2.5 1.2-3z"/><path fill-rule="evenodd" class="a" d="m113.6 32.2h0.1q0.2 0 0.2 0.2 0.1 0.2 0.1 0.2 0.1 0.1-0.1 0.3l-1.7 3.5q1-1.2 2.1-1.9 0.4-0.3 0.8-0.3 0.4 0 0.6 0.2 0.2 0.2 0.3 0.5 0 0.4-0.1 0.9-0.1 0.6-0.4 1.2-0.2 0.6-0.6 1.2-0.4 0.7-0.9 1.2-0.4 0.6-1 1-0.6 0.3-1 0.4-1 0.1-1.1-0.7-0.7 1.4-1.6 3.4-0.9 2-0.9 2.1-0.1 0.1-0.2 0.1 0 0-0.1 0-0.2-0.1-0.3-0.2-0.2-0.2-0.2-0.5 0-0.3 0.1-0.6 0.8-1.8 3-6.8 2.3-5 2.5-5.2 0.2-0.1 0.3-0.2zm1.1 3.4q0-0.2-0.2-0.1-0.4 0-1.5 1.4-1.2 1.4-1.8 2.6 0.2 0.2 0.6 0.1 0.4 0 0.9-0.5 0.6-0.5 1-1.1 0.5-0.7 0.8-1.3 0.2-0.7 0.2-1.1z"/><path class="a" d="m123 27.6h0.6q0.2 0 0.2 0.2 0 0 0 0-1.9 3.7-4.1 8.7-0.2 0.3-0.3 0.4 0 0 0 0 0 0 0 0-0.1 0-0.1 0-0.1 0.1-0.3 0.1-0.1 0-0.2 0.1 0 0-0.2 0-0.2 0.1-0.3-0.2 0-0.5 1-2.7 1-2.3 2-4.2 1-1.9 1.3-2.2 0.1-0.1 0.4-0.2zm-5.9 12.3q0-0.5 0.3-0.9 0.4-0.5 0.8-0.5 0.5-0.1 0.5 0.4 0.1 0.4-0.3 0.9-0.3 0.4-0.8 0.5-0.4 0.1-0.5-0.4z"/><g clip-path="url(#cp4)"><g clip-path="url(#cp5)"><g clip-path="url(#cp6)"><path class="a" d="m38.9 36.9c2.7-1.2 5.8-1.3 8.7-1.2 3.1 0.1 6.2 0.5 9.3 1 3.2 0.5 6.3 1.1 9.4 1.5q2.4 0.3 4.7 0.5c1.5 0.1 3 0.2 4.5 0.2 1.5-0.1 3-0.5 4.2-1.4 1.1-0.8 1.9-2.2 1.7-3.5-0.1-0.6-1-0.6-1 0-0.1 1.2-0.6 2.2-1.6 2.9-1.1 0.8-2.5 1-3.9 1.1-3 0.2-6-0.1-9-0.5-6-0.9-12-2.3-18.1-2.4-3.1-0.1-6.3 0-9.1 1.5-0.2 0.1 0 0.4 0.2 0.3z"/></g></g></g><g clip-path="url(#cp7)"><g clip-path="url(#cp8)"><g clip-path="url(#cp9)"><path class="a" d="m40.2 35c2.7-0.8 5.5-0.9 8.3-0.7 0.1 0 0.2-0.2 0-0.3-2.7-0.6-5.7-0.1-8.4 0.9 0 0 0 0.1 0.1 0.1z"/></g></g></g><g clip-path="url(#cp10)"><g clip-path="url(#cp11)"><g clip-path="url(#cp12)"><path class="a" d="m78.6 39.1c1-0.1 2-0.5 2.7-1.2q0.6-0.6 1-1.3c0.2-0.3 0.6-1 0.4-1.4-0.2-0.2-0.4-0.2-0.5-0.1-0.4 0.3-0.4 0.9-0.5 1.2q-0.3 0.7-0.7 1.2c-0.6 0.7-1.5 1.3-2.4 1.5-0.1 0-0.1 0.1 0 0.1z"/></g></g></g></svg>