<svg xmlns="http://www.w3.org/2000/svg" xmlns:xlink="http://www.w3.org/1999/xlink" version="1.1" id="layer" x="0px" y="0px" style="enable-background:new 0 0 652 652;" xml:space="preserve" viewBox="21.5 265.1 600 112.5"><style type="text/css">	.st0{fill:#3C3C3B;}	.st1{fill:#EF6A23;}	.st2{fill:#FFFFFF;}</style><path class="st0" d="M134.6,310.3c0-8.8,9.3-16.3,20.2-16.3c10.3,0,20.9,4.7,21.4,17.3h-13.7c-0.2-4.1-4.3-5.6-7.4-5.6  c-3.6,0-7,1.3-7,5.4c0,2.2,2.6,3.8,5.8,4.6l9.2,2.2c12.7,3.3,14.4,12.1,14.4,16.4c0,11.1-11.1,16.9-22.4,16.9  c-10.8,0-21.9-6.6-22.1-18.5h13.4c0.3,3.9,4.8,7.2,10.1,7c4-0.1,7.2-2.4,7.2-5.5c0.1-2.8-2-4.3-6-5.2l-7.5-1.9  C135.9,323.2,134.6,316.7,134.6,310.3z M190.9,265.2c5,0,9.1,3.8,9.1,8.6c0,5-4.1,8.7-9.1,8.7c-5.1,0-9.3-3.8-9.3-8.7  S185.9,265.2,190.9,265.2z M197.9,350h-14.2v-54.9h14.2V350z M227.7,295.1h11.6v11.5h-11.6V350h-14.2v-43.4h-10v-11.5h10v-20.9h14.2  V295.1z M295.7,327.3h-41.9c0.9,7.3,7,11.8,15.2,11.8c5.5,0,11.1-2.4,13.7-7c3.4,1.9,7.4,4,10.9,5.8c-5,9.4-15.6,13.3-25.7,13.3  c-15.6,0-28.4-11.5-28.4-28.8c0-17.3,12.8-28.4,28.4-28.4c15.6,0,27.9,11.1,27.9,28.4C296,323.8,295.8,326.1,295.7,327.3z   M282,317.5c-1-7.5-6.7-11.6-13.7-11.6c-7.5,0-13.4,4.3-14.5,11.6H282z M288.3,364.3h7c7,0,8.2-5.6,8.1-10.3v-58.8h14.5v58.6  c0,14.2-5.2,23.8-20.5,23.8h-9.1V364.3z M310.6,265.2c5.2,0,9.2,3.8,9.2,8.6c0,5-4,8.7-9.2,8.7c-5,0-9.2-3.8-9.2-8.7  C301.3,269,305.6,265.2,310.6,265.2z M369.3,343c-3.6,5.6-11.6,8.1-17.1,8.1c-14.5,0-28-11.1-28-28.6c0-17.6,13.5-28.6,28-28.6  c5,0,13,1.9,17.1,8v-6.8h14.4V350h-14.4V343z M354.2,337.4c7.7,0,15.1-5.4,15.1-14.8c0-9.6-7.5-14.8-15.1-14.8  c-7.9,0-15.2,5.8-15.2,14.8C339,331.4,346.3,337.4,354.2,337.4z M391,350v-84.7h14.4v37.1c2.9-5.5,9.9-8.5,17.1-8.5  c14.5,0,26.9,11.1,26.9,28.7c0,17.4-12.6,28.6-26.9,28.6c-7.2,0-14.2-3.1-17.1-8.6v7.4H391z M420.1,337.4c8,0,14.5-6,14.5-15.1  c0-8.9-6.5-14.8-14.5-14.8c-7.4,0-14.6,5.4-14.6,14.8C405.6,331.6,412.4,337.4,420.1,337.4z M455.4,350v-84.7h14.4v37.1  c2.9-5.5,9.9-8.5,17.1-8.5c14.5,0,26.9,11.1,26.9,28.7c0,17.4-12.6,28.6-26.9,28.6c-7.2,0-14.2-3.1-17.1-8.6v7.4H455.4z   M484.5,337.4c8,0,14.5-6,14.5-15.1c0-8.9-6.5-14.8-14.5-14.8c-7.4,0-14.6,5.4-14.6,14.8C469.9,331.6,476.8,337.4,484.5,337.4z   M575.4,327.3h-41.9c0.9,7.3,7,11.8,15.2,11.8c5.5,0,11.1-2.4,13.7-7c3.4,1.9,7.4,4,10.9,5.8c-5,9.4-15.6,13.3-25.7,13.3  c-15.6,0-28.4-11.5-28.4-28.8c0-17.3,12.8-28.4,28.4-28.4c15.6,0,27.9,11.1,27.9,28.4C575.7,323.8,575.6,326.1,575.4,327.3z   M561.7,317.5c-1-7.5-6.7-11.6-13.7-11.6c-7.5,0-13.4,4.3-14.5,11.6H561.7z M596.8,350h-14.4v-54.9h14.4v13  c2.8-10,9.3-14.1,15.6-14.1c3.9,0,6.8,0.8,9.1,2l-2.4,13c-3.4-1.5-7-1.5-8.4-1.5c-9.8,0-13.7,8.7-13.7,23.3L596.8,350L596.8,350z"></path><path class="st1" d="M99,333.7c5.4-7.1,8.5-16,8.5-25.6c0-23.7-19.2-43-43-43c-23.7,0-43,19.2-43,43c0,23.7,19.2,42.9,43,42.9h0.1  h51.7L99,333.7z"></path><path class="st2" d="M89.3,302.1l-2.6,2.5c-2.8,2.8-5.6,5.4-8.5,8.2c0.1,0.3,0.1,0.6,0.2,0.9l2.4,14.5c0,0.7-0.3,1.3-0.9,1.7  c-0.6,0.3-1.2,0.3-1.7,0.1c-0.7-0.4-1.5-0.8-2.2-1.2l-7.1-3.8c-1.5-0.8-2.9-1.6-4.4-2.4c-1.4,0.8-2.9,1.6-4.3,2.3l-7.1,3.8  c-0.7,0.4-1.5,0.8-2.2,1.2c-0.2,0.2-0.6,0.2-0.8,0.2c-0.3,0-0.6-0.1-0.9-0.2c-0.6-0.3-0.9-0.9-0.9-1.7V328l2.4-14.4  c0.1-0.3,0.1-0.6,0.2-0.9c-2.8-2.8-5.6-5.4-8.5-8.2l-2.6-2.5c-0.6-0.6-0.7-1.2-0.5-1.9c0.2-0.6,0.8-1.1,1.5-1.2  c1.1-0.2,2.1-0.3,3.2-0.5l10.7-1.6c0.5-0.1,0.9-0.2,1.3-0.2c0.2-0.3,0.3-0.6,0.5-0.9c0.2-0.4,0.4-0.7,0.6-1.1l1.5-3.1  c0.6-1.1,1.1-2.2,1.6-3.3c0.9-1.8,1.8-3.6,2.7-5.4c0.3-0.6,0.9-1,1.7-1c0.6,0,1.3,0.4,1.6,1c0.9,1.8,1.8,3.6,2.7,5.4  c0.6,1.1,1.1,2.2,1.6,3.3l1.5,3.1c0.2,0.4,0.4,0.7,0.6,1.1c0.2,0.3,0.3,0.6,0.5,0.9c0.5,0.1,0.9,0.2,1.3,0.2l10.7,1.6  c1.1,0.2,2.1,0.3,3.2,0.5c0.7,0.1,1.3,0.6,1.5,1.2C90,300.9,89.8,301.5,89.3,302.1z"></path></svg>